<svg xmlns="http://www.w3.org/2000/svg" xmlns:xlink="http://www.w3.org/1999/xlink" id="Layer_1" x="0" y="0" version="1.1" viewBox="0 0 460 460" xml:space="preserve" style="enable-background:new 0 0 460 460"><polygon style="fill:#c8523b;filter:grayscale(100%)" points="79.3 142.409 76.625 178.724 129.148 178.724 131.823 142.409"/><polygon style="fill:#e5c400;filter:grayscale(100%)" points="64.064 350.686 116.462 352.431 117.258 341.445 64.86 339.697"/><polygon style="fill:#c8523b;filter:grayscale(100%)" points="62.211 376.441 114.734 376.441 116.462 352.46 64.064 350.732"/><polygon style="fill:#c8523b;filter:grayscale(100%)" points="64.86 339.697 117.258 341.445 127.097 202.93 74.574 202.93"/><polygon style="fill:#e5c400;filter:grayscale(100%)" points="74.574 202.93 127.097 202.93 129.148 178.724 76.625 178.724"/><rect style="fill:#e5c400;filter:grayscale(100%)" width="72.635" height="40.353" x="133.163" y="45.57"/><rect style="fill:#e5c400;filter:grayscale(100%)" width="72.635" height="217.89" x="133.163" y="158.551"/><rect style="fill:#59595a;filter:grayscale(100%)" width="72.635" height="72.629" x="133.163" y="85.923"/><rect style="fill:#608a7c;filter:grayscale(100%)" width="52.463" height="44.379" x="213.857" y="194.869"/><rect style="fill:#abcb57;filter:grayscale(100%)" width="52.463" height="84.733" x="213.857" y="239.248"/><rect style="fill:#abcb57;filter:grayscale(100%)" width="52.463" height="36.314" x="213.857" y="340.127"/><rect style="fill:#e5c400;filter:grayscale(100%)" width="52.463" height="16.146" x="213.857" y="323.981"/><rect style="fill:#abcb57;filter:grayscale(100%)" width="52.463" height="60.535" x="213.857" y="134.334"/><rect style="fill:#abcb57;filter:grayscale(100%)" width="52.463" height="40.347" x="213.857" y="81.887"/><rect style="fill:#608a7c;filter:grayscale(100%)" width="52.463" height="12.1" x="213.857" y="122.234"/><polygon style="fill:#abcb57;filter:grayscale(100%)" points="293.736 72.751 268.411 74.513 269.502 88.276 294.814 86.508"/><polygon style="fill:#608a7c;filter:grayscale(100%)" points="292.283 376.441 317.74 376.441 314.966 341.399 289.759 344.652"/><polygon style="fill:#608a7c;filter:grayscale(100%)" points="291.512 43.559 266.202 45.57 268.411 74.513 293.736 72.751"/><polygon style="fill:#608a7c;filter:grayscale(100%)" points="294.814 86.508 269.502 88.276 287.938 321.523 313.145 318.289"/><polygon style="fill:#abcb57;filter:grayscale(100%)" points="287.938 321.523 289.759 344.603 314.966 341.369 313.145 318.289"/><rect style="fill:#c8523b;filter:grayscale(100%)" width="72.635" height="52.46" x="322.8" y="323.981"/><rect style="fill:#c8523b;filter:grayscale(100%)" width="72.635" height="157.371" x="322.8" y="106.092"/><rect style="fill:#e5c400;filter:grayscale(100%)" width="72.635" height="60.519" x="322.8" y="263.462"/><rect style="fill:#b9bbbc;filter:grayscale(100%)" width="460" height="40" y="376.441"/><rect style="opacity:.3;fill:#5b5b5f;filter:grayscale(100%);enable-background:new" width="460" height="20" y="396.441"/></svg>